<svg version="1.2" xmlns="http://www.w3.org/2000/svg" viewBox="0 0 500 500" width="500" height="500">
	<style>
		.s0 { fill: #bf2567 } 
		.s1 { fill: #f7c95e } 
		.s2 { fill: #bf2566 } 
	</style>
	<g id="Layer 1">
		<path class="s0" d="m266.82 24.82h6.97l7.97 6.97 6.98 11.96 5.97 17.93 2.99 17.94 1 14.94v10.97l-1 17.93v11.96l11.96-15.95 8.97-9.96 11.95-12.95 9.97-7.97 13.95-8.97 19.92-8.97 11.96-3.98h8.97l2.99 6.97-2 19.93-3.98 17.93-5.98 15.95-8.97 16.93-12.95 19.93 8.97-2.99 11.95-4.98 22.92-6.97 14.95-2.99 10.96-1h12.95l19.93 2.99 11.95 3.98 3.99 2.99-1 4.99-5.98 8.96-11.95 13.95-10.96 9.97-15.94 11.95-13.95 7.97-18.93 8.97-12.96 4.98v1l31.89 3.99 18.93 4.98 17.93 7.97 13.95 7.97 9.97 7.97 9.96 8.97 2.99 6.97-4.98 4.98-7.97 4.99-11.96 4.98-18.93 4.98-12.95 1.99h-36.87l-18.93-2.99-8.97-1.99h-3.99l7.98 6.98 10.96 8.96 13.95 12.96 8.96 10.96 8.97 12.95 8.97 16.94 5.98 17.93 0.99 9.97-1.99 4.98-7.97 1.99h-8.97l-19.93-2.99-16.93-5.98-18.94-8.96-14.94-9.97-10.96-8.97-12.95-11.95-2-3.99-3.98-1.99-2.99-1.99 4.98 20.92 4.98 24.91 1 7.97v26.9l-3.99 22.92-4.98 15.94-5.98 10.96-3.98 2.99h-6.98l-8.97-4.98-9.96-8.97-4.98-4.98-7.97-8.97-7.97-12.95-7.97-15.94-4.99-12.95-3.98-17.94-3.99-25.91-2.99-0.99-2.99 9.96-9.96 18.93-11.96 17.94-8.96 10.96-10.96 11.95-10.96 9.97-14.95 10.96-12.95 5.98-6.98 1.99h-12.95l-2.99-2.99-2.99-9.96-0.99-6.98v-17.93l2.99-18.93 5.97-16.94 7.97-15.94 13.95-20.93 4.99-6.97-3.99 0.99-14.95 6.98-23.91 8.97-18.93 4.98-14.95 1.99h-30.88l-15.95-2.99-4.98-2.99-1.99-1.99 1-5.98 6.97-10.96 8.97-10.96 11.95-11.96 11.96-8.96 18.93-9.97 11.96-5.98v-1.99l-24.91-2.99-23.91-5.98-14.95-5.97-14.94-7.98-11.96-8.96-4.98-4.98-3.99-4.99v-4.98l8.97-7.97 14.94-6.97 18.94-4.99 19.92-2.98h22.92l10.96 0.99h11.96l-17.94-13.95-12.95-11.95-9.96-12.96-8.97-15.94-5.98-14.95-1.99-8.96v-11.96l2.99-2.99 4.98-0.99 21.92 2.98 14.94 3.99 19.93 7.97 15.94 8.97 13.95 8.97 2 0.99-11.96-24.91-6.98-22.91-2.98-17.94v-21.92l1.99-11.96 3.98-4.98 4.99-0.99 11.95 4.98 13.95 8.97 10.96 8.96 7.97 6.98 8.97 10.96 9.96 13.95 14.95 22.91 3.98 3.99v-18.93l2.99-25.91 4.99-16.94 9.96-20.92 7.97-11.96 10.96-12.95zm2.99 9.96l-5.98 3.99-9.96 12.95-9.97 17.94-4.98 10.96-2.99 8.96-2.99 24.91-0.99 21.92 0.99 14.95-11.95 2.99h-2l-1.99-3.99-9.96-18.93-6.98-9.96-9.96-13.95-9.96-12.95-10.96-10.96-12.96-9.97-12.95-6.97h-2.99l-1 2.99-0.99 16.94 2.99 21.92 5.98 20.92 7.97 18.93 8.96 14.95 6.98 8.96 3.98 3.99v4.98l-2.99 1-2.98 2.99-4.99-2-8.96-6.97-15.95-11.96-12.95-7.97-11.96-6.97-14.94-5.98-13.95-3.99-16.94-2.99-4.98 1 1.99 11.96 4.98 11.95 7.98 13.95 9.96 12.96 10.96 11.95 11.96 9.97 18.93 10.96 12.95 5.98-1 8.96-38.86-4.98-15.94-1h-17.93l-18.93 2-16.94 4.98-11.96 4.98-6.97 3.99 4.98 4.98 8.97 6.97 15.94 8.97 18.93 6.97 23.91 5.98 17.94 2h37.86l1.99 2.99 1 4.98-6.98 0.99-14.94 3.99-24.91 9.96-14.95 7.97-13.95 9.97-9.96 8.96-8.97 8.97-6.97 9.97v2.99l10.96 1.99h30.89l21.92-3.99 20.92-5.98 20.92-8.96 14.95-7.97 2.99-2.99 4.98 0.99 5.98 4.98 1 2.99-8.97 10.96-10.96 15.95-7.97 12.95-7.97 15.94-3.99 10.96-2.99 13.95v29.89l1.99 4.98h5.98l15.94-7.97 11.96-8.96 16.94-15.95 12.95-16.93 11.96-17.94 7.97-13.95 4.98-11.96 1-3.98 19.93 1 1.99 5.97 3.98 27.9 5.98 19.93 6.98 15.94 8.96 14.95 11.96 13.95 9.96 8.96 3.99 2 3.99-5.98 4.98-15.94 2.99-14.95 0.99-7.97v-20.92l-2.99-21.92-3.98-16.94-4.98-16.94 14.94-9.97 3.99 1 10.96 11.96 7.97 7.97 13.95 10.96 15.94 9.96 16.94 7.97 16.94 4.99 11.95 1.99h8.97l1-4.98-4.98-14.95-9.97-18.93-7.97-10.96-8.97-10.96-23.91-23.91-13.95-9.97-2.99-2.99 3.99-7.97 8.96 1 21.93 4.98 12.95 1.99h35.87l17.93-3.98 15.94-4.98 11.96-4.99-1-3.98-6.97-6.98-14.95-9.96-18.93-8.97-20.92-5.98-20.92-2.98-30.89-2-5.98-0.99v-7.97l20.92-6.98 25.91-10.96 16.94-8.97 13.95-9.96 12.95-11.96 3.99-2.99v-1.99l2.98-1 7.98-9.96 0.99-2.99-6.97-2.99-13.95-1.99h-16.94l-18.93 2.99-19.93 5.98-15.94 5.98-22.92 10.96-9.96 6.97h-2.99l-4.98-6.97v-2l7.97-6.97 6.97-6.98 11.96-15.94 8.97-14.94 7.97-15.95 5.98-19.92 1.99-8.97 1-11.96-7.98 1-15.94 6.97-14.94 8.97-12.96 10.96-17.93 17.94-8.97 10.96-10.96 14.94-2.99 5.98-8.97-1-3.98-1.99 1.99-17.93 1-11.96v-40.85l-2.99-17.94-4.98-15.94-5.98-10.96z"/>
		<path class="s0" d="m290.73 345.65h3.98l6.98 20.93 3.98 20.92 1 10.96v15.94l-1.99 15.94-3.99 15.95-1.99 2.99-4.98-1-7.97-8.97-7.97-12.95-7.98-14.95-4.98-14.94-3.98-19.93-1-7.97v-14.95l12.95-2.99z"/>
		<path class="s0" d="m187.1 338.68l4.99 0.99 25.9 9.97 1 3.98-12.95 26.91-10.96 15.94-11.96 13.95-7.97 7.97-17.94 12.95-3.98 1.99h-4.98l-1-1.99v-11.96l3.99-19.92 7.97-19.93 5.97-10.96 7.98-10.96 9.96-12.95z"/>
		<path class="s0" d="m82.49 238.04h12.95l21.92 2 17.93 3.98 3.99 1.99 1 18.94 0.99 6.97-7.97 1.99-10.96 1h-17.93l-18.94-1.99-18.93-4.99-14.94-5.97-10.96-5.98-3.99-3.99 1-3.98 4.98-2.99 13.95-3.99 12.95-1.99z"/>
		<path class="s0" d="m265.82 55.71l3.98 0.99 4.99 7.97 3.98 12.96 1 6.97v37.86l-2.99 20.93-1.99 6.97h-30.89l-1.99-1.99-2-9.96 1-18.94 5.98-23.91 10.96-27.9 5.98-9.96z"/>
		<path class="s0" d="m347.52 300.82l4.98 0.99 10.96 8.97 9.97 8.97 12.95 12.95 12.95 16.94 8.97 14.94 3.99 7.97 0.99 3.99-0.99 1h-7.97l-15.95-4.99-15.94-7.97-13.95-9.96-12.95-11.96-13.95-13.95-1.99-4.98 13.95-15.94z"/>
		<path class="s0" d="m370.44 244.02l21.92 1 24.91 3.98 14.94 3.99 19.93 8.97 9.97 5.97 1.99 2.99-3.99 3.99-11.95 3.98-13.95 2h-35.87l-14.95-2-15.94-3.98-4.98-1.99 0.99-16.94 1-10.96z"/>
		<path class="s0" d="m423.25 164.31h22.91l1 3.99-7.97 9.96-9.97 9.96-12.95 8.97-14.94 7.97-18.93 6.98-16.94 4.98h-5.98l-9.97-19.93 1-3.98 17.94-10.96 15.94-7.97 12.95-4.99 18.93-3.98z"/>
		<path class="s0" d="m146.25 296.83l3.99 1 8.97 14.94 2.99 3.99-2 3.98-14.94 8.97-14.95 7.97-26.9 8.97-14.95 2.99h-23.91l-1.99-1.99 0.99-3.99 8.97-9.96 10.96-8.97 14.95-9.97 15.94-7.97 15.94-5.97z"/>
		<path class="s0" d="m148.25 82.61h5.97l7.98 5.98 9.96 8.96 8.97 10.96 9.96 13.95 8.97 14.95 9.96 18.93-1.99 3.99-14.95 7.97-5.98 3.98h-3.98l-8.97-10.96-6.97-9.96-8.97-16.94-6.97-20.92-2.99-14.95z"/>
		<path class="s0" d="m76.51 150.36h8.96l15.95 3.99 11.95 4.98 15.95 8.97 13.94 10.96 10.96 9.96 4.99 5.98-2 4.98-5.97 11.96-2.99 4.98-8.97-1-16.94-8.96-10.96-7.98-16.94-16.93-6.97-9.97-7.97-13.95z"/>
		<path class="s2" d="m369.44 92.57h4.98l-2.99 15.94-7.97 19.93-7.97 13.95-11.95 15.94-11.96 12.96-1.99 1.99-3.99-1-8.97-5.98-8.96-4.98-2-2.99 9.97-16.94 8.97-11.95 10.96-11.96 9.96-9.96 16.94-11.96z"/>
	</g>
</svg>
