<?xml version="1.0" encoding="UTF-8"?>
<svg version="1.1" viewBox="0 0 1920 1080" width="1920" height="1080" xmlns="http://www.w3.org/2000/svg">
<path transform="translate(1290,192)" d="m0 0h10l8 4 6 8 2 5 1 11v50l2 27 5 39 2 10 5 26 5 22 4 14 2 8 7 25 17 51 12 32 7 19 5 12 11 26 9 22 1 4v9l-3 9-8 9-6 3-37 8-15 3-9 2-6 2-20 6-13 5-17 6-27 10-30 11-18 7-13 4-12 5-26 10-33 15-19 9-14 8-16 8-33 18-22 13-19 12-21 13-22 14-48 30-25 16-15 10-20 13-17 11-31 20-13 8-11 7-30 18-12 7-9 3-9 2-6-1-8-4-5-5-4-5-8-24-5-17-8-20-7-15-15-30-10-19-8-14-6-11-10-17-7-11-12-18-9-13-14-20-11-15-14-19-10-13-9-12v-2h-2l-7-9-18-22-11-13v-2h-2l-7-8-12-13-10-11-4-6-2-6v-8l4-9 5-5 6-4 3-1h17l16 3 24 7 10 3 10 4 16 6 18 7 16 8 11 5 12 6 18 10 23 15 11 7 10 7 19 13 15 11v2l5 2 2 1-2-15-1-17-1-6-2-42-1-6-1-26-1-10-4-82-1-11-2-52 2-18 5-8h2v-2l10-5h15l10 5 11 7 26 20 11 9 13 11 8 6v2l4 2 8 7 14 12 13 12 11 9 10 10 8 7 3 2v2l4 2 9 8v2l4 2 7 7 2 1v2l4 2 7 7 8 7 7 6 2-4 6-35 4-21 4-24 6-35 4-21 4-25 4-21 3-18 5-26 3-15 5-13 6-8 4-3 6-2h10l8 4 5 5 6 8 6 14 7 15 10 22 16 32 11 23 10 19 24 44 6 10 4 7 2-1 5-11 4-11 6-13 9-21 8-17 8-18 16-32 12-23 10-18 6-12 6-10 8-14 6-9 6-11 18-27 12-16h2l2-4 7-5zm-18 88-9 15-12 21-15 28-16 32-13 27-9 20-6 13-8 19-4 8-4 10-7 17-10 19-4 5v2h-2v2l-4 2-7 4-11 1-8-2-9-6-8-9-12-19-6-12-16-28-8-16-14-27-9-16-9-20-10-19-2-1-2 5-4 24-4 21-3 19-4 21-8 47-4 21-6 35-3 12-3 14-3 10-6 8-8 5-11 2-9-3-9-6-12-11h-2l-1-3h-2v-2l-8-7-16-15-5-5h-2v-2l-8-7-3-3h-2v-2l-8-7-13-12-3-1v-2l-11-9-6-6h-2v-2l-11-9-11-10-11-9-10-9-11-9-12-10-11-9-2 1 1 29 1 25 1 10 1 26 2 32 3 57 1 7 1 20 2 21 3 32 4 30v17l-4 8-7 4-4 1h-9l-8-5-10-9-13-13h-2v-2l-11-9-8-7-10-8-12-9-18-13-33-21-25-14-16-8-16-7-13-6-12-5h-4l2 5 26 34 5 7h2l2 5 8 10 15 20 13 18 8 11 18 27 7 11 10 16 22 38 6 12 9 17 8 16 11 23 6 15 6 13 6 12 6-2 10-6 22-13 7-5 7-4 17-11 19-12 33-22 41-26 30-19 64-40 14-9 7-4 20-12 14-8 16-8 29-15 32-16 24-10 25-10 15-5 10-4 17-6 10-4 16-6 21-8 17-6 22-8 15-5 22-6 15-3 16-4 4-2-9-21-6-17-5-12-6-16-6-17-8-21-13-40-7-25-5-19-7-29-7-35-3-18-2-13-4-36z" fill="#FDDD03"/>
<path transform="translate(1322,27)" d="m0 0h13l8 5 4 6 1 5v9l-3 13-8 24-3 7-4 14-3 8-6 17-6 8-9 5-10-1-6-3-8-9-1-12 4-16 12-37 12-32 8-9z" fill="#FDDD03"/>
<path transform="translate(336,453)" d="m0 0 10 2 13 9 13 11 10 8 14 12 16 14 3 6 1 6-2 10-7 8-5 3-8 1-9-3-14-10v-2l-4-2-14-11-15-13-13-12-7-7-2-8 1-6 3-7 8-7z" fill="#FDDD03"/>
<path transform="translate(620,234)" d="m0 0h9l7 3 2 1v2h2l8 11 7 10 12 18 12 19 3 6v11l-4 8-7 6-10 2-9-3-8-7-13-18-18-27-7-11-2-4v-12l3-6 5-5z" fill="#FDDD03"/>
<path transform="translate(969,101)" d="m0 0 9 2 8 7 4 6 4 24 1 11 1 2 3 25v11l-4 8-7 6-5 2h-7l-11-4-5-7-5-19-3-19-3-24v-14l3-7 5-5 5-4z" fill="#FDDD03"/>
</svg>
