<?xml version="1.0" encoding="UTF-8"?>
<svg version="1.1" viewBox="0 0 2048 682" width="600" height="200" xmlns="http://www.w3.org/2000/svg">
<path transform="translate(1e3 14)" d="m0 0h7l7 8 6 12 4 13 3 22v11l-2 18-2 6h2l2-4 8-11 11-12 7-7 12-9 15-8 14-5 10-1 3 4v11l-5 25-7 16-6 10-8 11-3 4 14-7 21-7 18-3h18l16 3 9 4 1 5-5 8-9 10-11 11-15 11-15 8-20 7 22 2 14 3 15 6 15 8 10 8 8 7 2 3-1 6-11 7-18 6-16 3h-31l-17-3-7-2 13 10 15 14 10 13 9 16 6 16 1 4v7l-4 4h-21l-16-4-12-5-13-7-13-10-10-9-10-10 3 10 6 28v30l-5 22-4 9-5 8-1 1h-7l-8-5-10-9-10-12-9-16-5-11-4-15-2-12-1-13h-2l-1 5-5 12-10 16-10 13-11 12-10 9-12 8-14 5h-12l-3-5-2-9v-21l3-14 6-16 6-11 9-13 6-8-11 7-24 9-21 5-8 1h-20l-17-3-4-2-2-5 4-8 8-10 9-10 13-10 15-8 9-4h2v-2h-12l-17-3-20-6-15-8-12-9-6-7v-5l7-6 14-7 15-4 13-2h25l14 2-10-7-10-9-8-8-7-10-8-16-4-12v-12l3-3h12l20 4 15 6 17 9 10 8-1-3-7-14-5-15-4-19v-19l2-11 4-4h6l14 7 12 9 8 7 9 11 10 14 10 18v-16l3-20 5-16 8-16 9-13 8-8zm1 10-9 10-7 11-7 16-4 17-2 16v22l-8 3h-3l-9-16-10-15-10-13-11-12-12-9-8-5h-3l-1 14 2 18 7 23 8 16 10 14 2 2v4l-7 5-13-10-14-10-14-8-14-6-9-3-13-2h-5l2 11 8 16 10 14 11 11 14 10 15 8 4 2-1 5-1 2-9-1-25-3h-29l-17 3-21 8v3l10 8 16 8 13 5 22 5 9 1h17l15-1 2 8-7 1-18 6-21 10-12 8-10 9-14 15 2 2 7 1h27l20-4 17-6 22-10 5-3 5 1 3 3h2l-3 7-13 18-8 14-7 16-3 13v25l1 3 6-1 15-8 11-9 13-13 13-18 12-23 2-7 16 1 2 7 4 24 6 18 8 15 10 13 11 11 3 1 4-7 5-19 1-8v-23l-3-19-5-18-1-6 5-2 7-4 4 1 12 12 11 9 10 7 15 8 15 5 15 3h5l-1-6-5-13-7-13-10-13-9-10-7-7-8-7-11-9 3-7 11 1 23 4 10 1h11l16-2 24-7 6-3v-2l-14-10-10-6-14-6-16-4-14-2-24-2-4-1-2-7 11-3 21-8 21-11 13-10 13-12 7-8-1-3-14-2h-12l-20 3-16 5-16 6-17 9-3 3-4-1-4-5 1-3 7-6 13-17 8-14 5-10 5-15 3-15v-3l-6 1-16 8-11 7-12 11-13 13-12 16-4 6-10-2 1-13 1-10v-34l-3-16-7-18-2-2z" fill="#B7195B"/>
<path transform="translate(987,131)" d="m0 0h14l17 4 9 4 10 6 10 9 8 11 5 13 2 9v16l-4 16-6 12-11 12-8 7-16 8-14 4-7 1h-20l-16-4-12-5-10-7-10-10-8-14-3-9-1-5v-15l2-10 5-12 7-11 9-10 10-8 14-7 16-4z" fill="#FAC132"/>
<path transform="translate(1271,107)" d="m0 0h18l12 3 12 6 10 9 6 11 1 4v18l-4 12-7 11-9 10-8 7-3 3 11 6 9 7 8 9 6 12 3 11v16l-4 13-6 11-8 10-14 11-16 7-14 4-7 1h-23l-3 6-5 4-2 1-9-1-5-5-1-2v-14l9-55 7-53 4-49h-9l-6-5-1-2v-8l4-7 9-9 14-8 14-4zm3 23-11 2-11 6-7 6 2 1h7l4 2 4 8v12l-1 25 6-1 14-7 10-8 9-9 6-12 1-7-3-9-6-5-7-3-6-1zm-12 87-4 1-10 68-1 8 2 2 4 1h12l12-3 14-7 10-8 6-8 4-9 1-5v-8l-3-10-4-6-7-7-14-7-8-2z" fill="#040404"/>
<path transform="translate(254,140)" d="m0 0h11l11 2 10 5 10 9 5 8 4 11 1 6v15l-3 15-6 16-7 13-12 16-14 14-17 12-4 2-1 2 5 2 12 9 14 12 10 10 7 8 10 10 6 4 3 6-1 8-7 6-6 1-7-3-12-11-2-4h-2l-7-8-15-15-11-9-11-8-12-6h-4l-9 55-3 12-4 4-7 1-8-2-4-5 1-10 4-22 5-35 7-64 2-24v-8l-2-4 1-13 2-18 3-5 6-3 8 1 4 1 7-7 11-7 11-4zm3 23-12 3-9 7-14 14-1 2-3 48-3 30v4l5-1 16-8 14-11 10-10 10-14 8-16 3-10 1-7v-10l-3-10-7-8-5-2z" fill="#040303"/>
<path transform="translate(1699,161)" d="m0 0 7 2 5 6 1 5-6 26-17 65-13 53-3 12-5 6-2 1h-11l-6-4-7-14-11-26-17-39-15-33-3-7-3 12-8 37-16 64-4 13-4 5-5 2-8-1-5-5-1-2v-8l20-80 7-33 7-43 3-7 5-4 9-1 6 3 4 5 15 31 13 29 11 25 9 20 4 10v2l2-1 12-46 9-34 8-32 5-10 4-3z" fill="#030303"/>
<path transform="translate(600,146)" d="m0 0h8l6 5 2 5-1 13-9 61-10 64-3 18-5 6-4 2h-8l-5-3-6-7-8-14-17-28-19-32-10-15-9-14-5 51-7 46-6 28-4 8-4 3h-9l-7-6v-13l7-37 7-50 3-30 1-16v-21l4-8 5-3h8l6 4 6 7 10 16 15 23 11 17 17 28 9 14 3 6 2 1 1-13 8-45 8-59 3-7z" fill="#030303"/>
<path transform="translate(1920,156)" d="m0 0 7 1 6 4 3 6 1 57 2 35 3 25 2 7 4 6-1 5-1 1v7l5 19 5 14 7 10-1 17-2 4-3 1-9-3-8-8-8-14-5-13-5-19-2-7-37-2h-16l-10 19-21 35-7 8-2 1h-9l-6-5-1-2v-7l7-12 8-13 10-18 4-7v-4l-6-4-2-4 1-7 5-5 2-1h12l10-19 10-22 7-15 19-41 8-18 7-9zm-9 60-4 8-8 18-15 32-5 9v2l18 2 19 1 1-4-3-36-2-32z" fill="#040403"/>
<path transform="translate(1484,132)" d="m0 0h8l6 4 4 5 2 13 3 39 5 42 2 14h7l6 3 3 4v7l-6 7-5 2 5 25 5 15 5 10v6l-4 5-9 3-7-2-5-6-5-12-6-20-5-22v-2l-56-1-3 3-11 19-15 25-8 11-5 3h-7l-6-4-2-6 1-6 10-16 16-28-1-7-3-5 1-7 5-4 11-1 18-35 10-21 24-48 6-8zm-4 50-32 64v2l41 1-2-21-4-34-1-12z" fill="#030303"/>
<path transform="translate(689,112)" d="m0 0h9l6 4 3 5 6 36 8 39 8 32 4 10 3 6v9l5 16 7 16 7 11 4 6v7l-4 6-5 3h-7l-5-3-6-7-7-12-9-23-4-13-38 3-10 2-14 34-11 24-6 10-4 4-9 1-5-3-3-5 1-9 14-30 10-24v-5l-4-7 2-6 5-4 4-1 5-14 11-36 10-38 8-30 5-10zm1 63-12 43-6 19v3l31-2 2-1-1-7-9-40-3-15z" fill="#040303"/>
<path transform="translate(414,156)" d="m0 0h28l6 4 3 7-2 6-5 5-11 2-64 4-12 1v17l-2 47 38-4 16-1 8 2 5 6v7l-4 5-6 3-31 3-23 2h-6l-1 13-6 42 37-2 15-2 5-2 10 1 5 5 1 2v7l-3 5-8 4-22 3-39 3-18-1-5-3-3-3-1-3v-11l6-42 4-42 3-45v-20l-1-4v-7l4-6 6-4h19l20-2z" fill="#060605"/>
<path transform="translate(1143,425)" d="m0 0h33l30 6 18-1h33l17 2 38 9 22 3 17-2 21-3 11-1h23l20 4 21 6 11 2h14l47-7h18l16 3 23 6h21l26-4h12l4 3v5l-4 3-18 4-28 3h-10l-14-2-29-7h-15l-37 6-25 2h-38l-23-3-24-5h-24l-42 6-11 1h-29l-18-4-37-12-4-1h-12l-31 7-21 2-15-2-10-5-7-8-1-4 6-5 20-6zm14 10-16 2-13 3 1 3 10 3h12l17-3 11-3v-2l-19-3zm78 6 4 3 10 4 19 5 11 1h11l12-1-1-2-26-7-10-2-11-1zm154 5v2l11 3 21 3h7l-1-2-14-4-14-2z" fill="#07B3C1"/>
<path transform="translate(811,417)" d="m0 0h20l16 2 15 4 7 4 1 4-2 5-5 1-14-4-17-2h-22l-20 3-18 6-27 11-19 5-18 2-20-1-16-2-9 1-23 5-15 2h-21l-14-2-30-8-19 3h-25l-10-6-4-1h-22l-18 4-17 5-12 4-5-2-1-7 8-5 20-7 21-5 20-3 10-1h25l25 5 11 2 21-5 14-2h15l25 4 20 4h10l47-15 22-5 20-2h35zm-53 13-20 2-22 6-20 7 3 2h14l16-3 26-9 7-4zm-236 12v2l2 1h14l-1-2-4-1zm79 0-15 3v2l19 4h24l14-2 1-2-23-5z" fill="#07B3C1"/>
<path transform="translate(1779,166)" d="m0 0h17l12 6 7 8 4 10v16l-4 7-4 2-9-1-6-7-1-4v-9l-3-4h-9l-8 4-7 7-8 13-8 16-8 21-6 23-4 25v20l3 12 3 6 1 3 4 2 5 2h13l10-4 13-10 2-1 9 1 5 5 1 7-5 8-9 8-16 8-9 2h-18l-11-4-9-6-8-9-5-10-4-12-1-6v-20l3-21 4-20 10-30 8-18 8-15 9-12 7-8 12-8z" fill="#040303"/>
<path transform="translate(808,491)" d="m0 0 10 1 6 5 5 12 6 26 6 30 7 25 7 14 9-1 4 3v6l-5 5-3 2h-12l-8-4-5-4-7-11-4-9v-2l-31 2-7 23-4 6-6 4h-9l-5-4v-7l8-29 9-35 6-20 11-27 6-8zm2 39-5 16-8 29v3h20l3-2-6-29-3-17z" fill="#030302"/>
<path transform="translate(1253,491)" d="m0 0 9 1 6 5 4 10 4 15 9 44 7 24 7 14 3 1 6-1 5 4-1 5-6 5-2 1h-12l-9-5-7-7-9-17h-12l-17 1-7 23-6 8-4 2h-9l-5-4-1-5 8-29 11-42 11-33 7-14 6-5zm0 40-9 34-3 13h21l1-5-6-28-2-13z" fill="#030302"/>
<path transform="translate(1346,490)" d="m0 0h18l11 4 9 6 6 7 4 11v15l-3 10-6 9-7 7-10 6-2 2 14 28 6 7 7 4 14 2 2 4-2 4-5 3h-17l-10-4-9-7-7-8-6-10-1 29-5 5-7 1-7-3-3-3-1-11-1-110 5-5 6-2zm7 11-2 1 1 50 5-1 7-6 6-11 2-11v-10l-3-8-5-4z" fill="#030303"/>
<path transform="translate(975,492)" d="m0 0h7l7 4 2 4v26l-2 28 28-1v-32l1-21 3-6 3-2h8l6 3 2 2 1 5v41l-2 75-5 4-6 1-6-2-3-3-2-4-1-13v-36h-28l-1 18-2 29-2 5-5 4h-9l-5-4-2-10 2-33 3-37 2-40 4-4z" fill="#030303"/>
<path transform="translate(1138,490)" d="m0 0h22l13 5 8 7 4 7 1 3v15l-7 14-10 10-3 2 10 6 5 4 6 9 2 6v13l-4 10-6 8-8 7-10 5-18 4h-8l-5-3-3-4-1-3v-45l1-20v-44l-3-5v-5l5-4zm10 10-1 4 1 7 1 33 5-2 8-9 4-7 1-4v-11l-3-6-4-4-3-1zm1 62-2 26v21l5-1 8-6 6-8 2-13-2-8-4-6-8-4z" fill="#020202"/>
<path transform="translate(604,490)" d="m0 0h20l11 4 8 6 5 7 2 7v8l-3 11-7 10-12 12 6 2 9 7 5 9 1 3v17l-6 12-9 9-10 6-15 4-9 1-6-3-4-5-2-6v-18l3-37 1-19v-31l-4-5 1-5 5-4zm9 10-2 2 1 8 1 33 4-2 6-5 6-10 2-8-1-9-4-6-6-3zm-1 63-2 11-2 27v7l3 1 11-8 5-8 1-4v-11l-4-8-7-6z" fill="#030302"/>
<path transform="translate(1059,387)" d="m0 0 11 1 12 5 10 6 7 8 3 7v14l-6 9-14 9-4 2v7l-5 5-4 2h-19l-9-7-4-6-8-1-13-8-5-4-2-4 2-10 5-9 8-9 8-4 8-7z" fill="#F7DABB"/>
<path transform="translate(1382,146)" d="m0 0h6l6 4 3 4-1 13-10 54-6 30-10 48-4 19-3 5-5 3h-9l-6-5-1-2v-11l17-82 10-52 4-20 6-7z" fill="#040303"/>
<path transform="translate(929,380)" d="m0 0 5 2 5 7 7 17 4 5 16-4 14-4 5 1 4 4-1 5-4 5-14 11-7 5 2 5 16 20 1 7-4 4-9-1-22-12-5-1-7 6-9 11-6 7-4 2-5-1-2-3v-10l6-19v-5l-10-3-16-4-6-5v-6l5-3 28-6 3-2 1-4 1-19 1-7 4-4zm1 11-1 4h4l-1-4zm1 10v3l3-1v-2zm2 7-2 1v5l5-1-1-4zm40 4v4l4-1v-3zm-8 4-5 3 1 3 4-2 1-4zm-13 5-1 4 4 1 2-3-2-2zm-17 4-3 3 1 5 4 2 4-3-1-4-3-3zm-39 2-2 1 2 4h4v-5zm19 0-2 1 1 4h5v-4zm33 14-1 4 8 4 9 7 2-1-12-10-3-4zm-17 4-4 2 1 4 3-1 2-5zm-5 8-4 2 1 3h3l2-5zm43 5 1 4h3l-1-4zm-51 6-4 8v3l4-1 3-8v-2z" fill="#FAC132"/>
<path transform="translate(909,490)" d="m0 0h12l10 4 7 5 5 10v8l-5 5h-6l-5-4-6-15-4-1-3 4-5 16-3 18-2 20v18l3 20 5 10 5 3 4-1 5-5 8-16 5-4 7 1 2 2v8l-4 11-6 8-5 5-8 3-12 1-12-3-6-4-8-9-6-15-2-10v-31l3-21 6-21 6-11 7-6z" fill="#030303"/>
<path transform="translate(731,489)" d="m0 0h13l5 3-1 5-4 3-10 2-34 3-1 23-2 28h31l2 1v5l-4 3-10 2-18 1-1 39-1 4 19-1 7-1h9l6 2 1 4-2 4-4 2-19 2-17 1h-15l-9-3-4-4 1-5 3-5 2-18 5-74 1-13v-7l2-3 36-2z" fill="#040403"/>
<path transform="translate(937,268)" d="m0 0 9 3 16 6-1 7-8 16-8 12-12 14-13 12-11 7-5-1-1-7 2-14 6-18 9-16 9-12z" fill="#B7195B"/>
<path transform="translate(1019,274)" d="m0 0h5l6 21 2 11 1 17-2 21-3 11-4 2-5-5-7-9-8-15-6-18-3-20v-10l1-1 17-3z" fill="#B7195B"/>
<path transform="translate(844,187)" d="m0 0h27l21 3 7 3v21l-8 2h-26l-18-3-18-6-13-7-2-2 1-4 6-3 14-3z" fill="#B7195B"/>
<path transform="translate(1080,192)" d="m0 0h26l22 4 19 7 11 6 3 3-1 4-13 5-19 2-23-1-15-3-12-4 1-12z" fill="#B7195B"/>
<path transform="translate(1e3 38)" d="m0 0 5 5 4 16 1 8v22l-3 22-2 5h-25l-2-5v-20l4-20 6-16 6-12z" fill="#B7195B"/>
<path transform="translate(1067,237)" d="m0 0 5 2 13 11 10 9 12 15 8 13 4 8v5h-7l-12-3-14-7-14-10-17-17-4-5 2-4 8-8z" fill="#B7195B"/>
<path transform="translate(1130,126)" d="m0 0h16l1 5-8 10-11 9-10 6-17 8-15 5-10 1-9-17 2-4 21-12 15-6z" fill="#B7195B"/>
<path transform="translate(905,60)" d="m0 0 7 1 13 12 11 13 9 14 10 19-1 4-18 11h-3l-7-8-7-10-8-16-5-17-2-12v-10z" fill="#B7195B"/>
<path transform="translate(902,234)" d="m0 0 4 1 10 15v3l-16 10-15 7-17 5-12 2h-18l-2-1 1-5 7-8 8-7 13-8 17-8 15-5z" fill="#B7195B"/>
<path transform="translate(847,115)" d="m0 0h10l16 5 13 7 14 10 11 10 4 6-6 10-4 8-9-2-14-8-10-8-10-10-10-14-4-8z" fill="#B7195B"/>
<path transform="translate(1084,68)" d="m0 0 4 1-1 10-4 12-8 16-6 9-9 11-8 8-9-5-10-6-1-2 6-11 10-14 7-7 1-2h2l1-3 14-11z" fill="#B7195B"/>
<path transform="translate(840,442)" d="m0 0h11l6 2-1 3-8 3-5 1h-11l-3-3 2-4z" fill="#07B3C1"/>
</svg>
